<?xml version="1.0" encoding="utf-8"?>
<!-- Generator: Adobe Illustrator 16.0.0, SVG Export Plug-In . SVG Version: 6.00 Build 0)  -->
<!DOCTYPE svg PUBLIC "-//W3C//DTD SVG 1.1//EN" "http://www.w3.org/Graphics/SVG/1.1/DTD/svg11.dtd">
<svg version="1.1" id="Layer_1" xmlns="http://www.w3.org/2000/svg" xmlns:xlink="http://www.w3.org/1999/xlink" x="0px" y="0px" width="250px" height="250px" viewBox="0 0 250 250" enable-background="new 0 0 250 250" xml:space="preserve">
<rect fill="#343C91" width="250" height="250"/>
<path fill="#F4CB0B" d="M123.064,57.196c7.829,7.679,22.761,12.756,24.521,24.52c2.092,14.018-9.969,15.532-14.194,28.391
	c12.723,3.929,16.17-16.275,30.969-15.485c10.815,0.576,11.674,10.942,24.521,11.614c-6.463,23.61-20.153,38.497-49.039,24.52
	c0.697,15.219,25.57,6.26,28.394,19.357c2.033,14.078-5.795,18.297-3.875,32.262c-17.832,1.484-32.152-0.539-37.424-11.615
	c-0.8-8.662,2.502-21.428-3.872-24.52c-9.225,2.047-3.513,12.607-5.163,18.068c-5.037,16.678-22.326,18.621-41.295,14.193
	c2.768-9.604-2.772-18.154-1.29-25.811c3.072-15.868,20.251-11.221,30.971-20.646c-11.153-3.709-23.859,5.731-34.842-2.582
	c-8.023-6.073-6.415-16.274-10.325-27.1c9.851-2.729,16.2-9.77,25.81-9.034c11.737,0.898,13.738,12.907,24.521,15.486
	c1.949-10.552-8.569-12.087-9.035-21.939C101.73,72.383,116.835,68.339,123.064,57.196z"/>
<g>
	<path fill="#F4CB0B" d="M143.791,17.146h-34.12c-2.82,0-5.106,2.367-5.106,5.286v22.334c0,2.919,2.287,5.287,5.106,5.287h34.12
		c2.82,0,5.105-2.367,5.105-5.287V22.432C148.896,19.513,146.611,17.146,143.791,17.146z M143.807,39.167
		c0,2.881-2.336,5.217-5.218,5.217h-23.718c-2.88,0-5.217-2.336-5.217-5.217V28.031c0-2.881,2.337-5.217,5.217-5.217h23.718
		c2.882,0,5.218,2.336,5.218,5.217V39.167z"/>
	<path fill="#F4CB0B" d="M137.365,199.947h-34.119c-2.82,0-5.106,2.367-5.106,5.287v22.334c0,2.92,2.286,5.285,5.106,5.285h34.119
		c2.82,0,5.105-2.365,5.105-5.285v-22.334C142.471,202.314,140.186,199.947,137.365,199.947z M137.382,221.969
		c0,2.883-2.336,5.217-5.217,5.217h-23.719c-2.881,0-5.217-2.334-5.217-5.217v-11.135c0-2.881,2.336-5.217,5.217-5.217h23.719
		c2.881,0,5.217,2.336,5.217,5.217V221.969z"/>
	<path fill="#F4CB0B" d="M61.23,175.061l-9.962-32.635c-0.824-2.695-3.754-4.191-6.547-3.34l-21.361,6.521
		c-2.792,0.852-4.389,3.729-3.565,6.428l9.962,32.633c0.824,2.697,3.754,4.191,6.547,3.34l21.361-6.521
		C60.458,180.635,62.054,177.758,61.23,175.061z M40.173,181.504c-2.755,0.842-5.671-0.709-6.512-3.466l-6.925-22.685
		c-0.841-2.756,0.711-5.672,3.467-6.514l10.65-3.252c2.755-0.841,5.67,0.712,6.512,3.469l6.926,22.684
		c0.841,2.756-0.711,5.672-3.467,6.514L40.173,181.504z"/>
	<path fill="#F4CB0B" d="M185.443,186.402l19.408,11.05c2.537,1.442,5.727,0.628,7.121-1.822l16.881-29.653
		c1.393-2.449,0.467-5.608-2.068-7.053l-19.41-11.049c-2.537-1.443-5.725-0.628-7.121,1.822l-16.879,29.652
		C181.979,181.802,182.906,184.959,185.443,186.402z M192.828,184.75c-2.506-1.426-3.381-4.611-1.953-7.115l11.734-20.611
		c1.424-2.504,4.608-3.379,7.113-1.955l9.678,5.511c2.502,1.426,3.377,4.61,1.951,7.114l-11.732,20.611
		c-1.426,2.506-4.609,3.379-7.115,1.953L192.828,184.75z"/>
	<path fill="#F4CB0B" d="M66.577,65.604L49.698,50.978c-2.207-1.912-5.493-1.733-7.339,0.398L20.016,77.162
		c-1.847,2.131-1.555,5.411,0.651,7.322l16.879,14.625c2.207,1.91,5.493,1.732,7.339-0.398l22.343-25.786
		C69.075,70.793,68.784,67.516,66.577,65.604z M59.012,65.785c2.178,1.887,2.414,5.181,0.526,7.36L44.007,91.069
		c-1.887,2.177-5.182,2.413-7.359,0.526l-8.415-7.292c-2.178-1.887-2.414-5.182-0.527-7.36l15.533-17.924
		c1.886-2.178,5.18-2.413,7.358-0.527L59.012,65.785z"/>
	<path fill="#F4CB0B" d="M201.096,54.145l-17.265,14.17c-2.256,1.852-2.636,5.122-0.845,7.301l21.648,26.371
		c1.789,2.18,5.07,2.445,7.326,0.592l17.264-14.171c2.254-1.852,2.633-5.121,0.844-7.3l-21.647-26.372
		C206.63,52.556,203.352,52.291,201.096,54.145z M199.996,61.631c2.227-1.828,5.516-1.505,7.342,0.723l15.051,18.331
		c1.826,2.227,1.504,5.514-0.721,7.343l-8.607,7.064c-2.227,1.828-5.516,1.506-7.342-0.722l-15.051-18.333
		c-1.826-2.226-1.504-5.513,0.721-7.341L199.996,61.631z"/>
	<path fill="#F4CB0B" d="M92.029,41.835l-7.257-10.042c-0.948-1.313-2.746-1.633-4.013-0.718L65.42,42.161
		c-1.269,0.917-1.528,2.725-0.579,4.037l7.257,10.041c0.948,1.312,2.745,1.633,4.013,0.717l15.34-11.087
		C92.719,44.954,92.978,43.147,92.029,41.835z M87.92,40.972c0.936,1.295,0.645,3.104-0.65,4.041l-10.663,7.706
		c-1.296,0.937-3.105,0.646-4.041-0.65l-3.618-5.006c-0.937-1.296-0.646-3.105,0.649-4.042l10.664-7.707
		c1.295-0.936,3.104-0.645,4.04,0.65L87.92,40.972z"/>
	<path fill="#F4CB0B" d="M37,106.047L24.614,105.8c-1.62-0.033-2.958,1.209-2.989,2.773l-0.376,18.922
		c-0.032,1.565,1.256,2.858,2.876,2.891l12.386,0.248c1.619,0.031,2.957-1.209,2.988-2.772l0.377-18.923
		C39.907,107.374,38.619,106.079,37,106.047z M33.838,108.809c1.598,0.032,2.868,1.353,2.836,2.951l-0.262,13.154
		c-0.033,1.598-1.353,2.867-2.951,2.835l-6.176-0.122c-1.598-0.031-2.868-1.354-2.837-2.951l0.264-13.155
		c0.032-1.598,1.353-2.868,2.95-2.836L33.838,108.809z"/>
	<path fill="#F4CB0B" d="M68.034,190.369l-5.431,11.135c-0.71,1.456-0.145,3.191,1.26,3.877l17.012,8.297
		c1.407,0.688,3.122,0.062,3.832-1.395l5.431-11.135c0.709-1.455,0.145-3.19-1.261-3.877l-17.011-8.297
		C70.458,188.289,68.743,188.914,68.034,190.369z M69.21,194.398c0.701-1.437,2.434-2.033,3.87-1.332l11.825,5.768
		c1.436,0.701,2.033,2.434,1.332,3.869l-2.707,5.552c-0.701,1.437-2.434,2.033-3.871,1.333l-11.825-5.768
		c-1.437-0.701-2.033-2.435-1.332-3.869L69.21,194.398z"/>
	<path fill="#F4CB0B" d="M153.602,204.49l5.116,11.283c0.669,1.476,2.367,2.146,3.791,1.502l17.236-7.819
		c1.426-0.646,2.037-2.366,1.366-3.841l-5.116-11.283c-0.668-1.473-2.365-2.145-3.791-1.499l-17.236,7.817
		C153.542,201.298,152.934,203.018,153.602,204.49z M157.455,206.154c-0.658-1.455-0.016-3.172,1.441-3.832l11.979-5.434
		c1.457-0.66,3.172-0.018,3.83,1.438l2.553,5.625c0.66,1.455,0.017,3.172-1.438,3.832l-11.982,5.434
		c-1.455,0.66-3.17,0.017-3.83-1.438L157.455,206.154z"/>
	<path fill="#F4CB0B" d="M210.328,138.3l12.389,0.16c1.621,0.022,2.949-1.229,2.969-2.792l0.246-18.927
		c0.021-1.564-1.277-2.85-2.896-2.871l-12.388-0.159c-1.618-0.021-2.946,1.229-2.969,2.793l-0.246,18.926
		C207.414,136.994,208.71,138.279,210.328,138.3z M213.471,135.518c-1.597-0.021-2.875-1.334-2.855-2.933l0.172-13.155
		c0.02-1.599,1.332-2.876,2.93-2.856l6.176,0.08c1.599,0.021,2.879,1.333,2.857,2.931l-0.17,13.155
		c-0.021,1.599-1.332,2.877-2.932,2.855L213.471,135.518z"/>
	<path fill="#F4CB0B" d="M178.564,59.201L187,50.128c1.104-1.185,1.066-3.012-0.078-4.076l-13.859-12.888
		c-1.146-1.066-2.971-0.968-4.071,0.218l-8.438,9.074c-1.102,1.185-1.066,3.009,0.08,4.075l13.859,12.889
		C175.639,60.485,177.46,60.387,178.564,59.201z M178.611,55.004c-1.09,1.17-2.92,1.237-4.092,0.148l-9.636-8.958
		c-1.168-1.089-1.235-2.919-0.147-4.09l4.205-4.523c1.09-1.171,2.922-1.239,4.092-0.15l9.635,8.96
		c1.17,1.088,1.238,2.918,0.148,4.089L178.611,55.004z"/>
	<path fill="#F4CB0B" d="M35.775,150.749c0.085,1.543-1.097,2.862-2.64,2.946l0,0c-1.543,0.086-2.862-1.096-2.948-2.639
		l-1.336-24.211c-0.085-1.545,1.097-2.864,2.639-2.949l0,0c1.543-0.085,2.863,1.097,2.948,2.64L35.775,150.749z"/>
	<path fill="#F4CB0B" d="M70.405,195.055c1.517,1.221,2.02,3.111,1.123,4.225l0,0c-0.896,1.113-2.852,1.027-4.368-0.192
		l-23.795-19.155c-1.517-1.221-2.02-3.113-1.124-4.226l0,0c0.896-1.115,2.852-1.026,4.369,0.192L70.405,195.055z"/>
	<path fill="#F4CB0B" d="M106.479,214.07c1.356,0.742,1.854,2.443,1.113,3.799l0,0c-0.741,1.355-2.442,1.854-3.798,1.113
		L82.518,207.35c-1.356-0.742-1.854-2.441-1.113-3.799l0,0c0.741-1.355,2.442-1.854,3.797-1.111L106.479,214.07z"/>
	<path fill="#F4CB0B" d="M158.227,205.549c1.575-0.611,3.305,0.062,3.862,1.504l0,0c0.562,1.44-0.264,3.104-1.84,3.715
		l-24.722,9.582c-1.575,0.61-3.307-0.062-3.864-1.504l0,0c-0.56-1.439,0.269-3.104,1.842-3.715L158.227,205.549z"/>
	<path fill="#F4CB0B" d="M196.607,183.846c1.41-1.049,3.299-0.891,4.221,0.35l0,0c0.922,1.24,0.525,3.095-0.883,4.144
		l-22.117,16.431c-1.408,1.045-3.297,0.89-4.219-0.353l0,0c-0.922-1.24-0.527-3.095,0.883-4.142L196.607,183.846z"/>
	<path fill="#F4CB0B" d="M213.966,133.283c0.289-1.678,1.761-2.824,3.281-2.562l0,0c1.522,0.264,2.522,1.838,2.231,3.518
		l-4.557,26.346c-0.291,1.68-1.76,2.826-3.283,2.562l0,0c-1.522-0.263-2.521-1.838-2.231-3.517L213.966,133.283z"/>
	<path fill="#F4CB0B" d="M212.602,91.206c-0.041-1.703,1.176-3.116,2.719-3.155l0,0c1.547-0.04,2.834,1.31,2.877,3.013l0.678,26.729
		c0.043,1.703-1.174,3.116-2.719,3.155l0,0c-1.543,0.04-2.832-1.31-2.877-3.013L212.602,91.206z"/>
	<path fill="#F4CB0B" d="M177.064,53.298c-1.287-1.116-1.513-2.967-0.5-4.134l0,0c1.014-1.168,2.877-1.211,4.166-0.094
		l20.203,17.512c1.286,1.116,1.512,2.967,0.498,4.137l0,0c-1.013,1.166-2.875,1.208-4.164,0.092L177.064,53.298z"/>
	<path fill="#F4CB0B" d="M141.932,33.18c-1.576-0.651-2.431-2.201-1.908-3.464l0,0c0.521-1.264,2.221-1.761,3.795-1.111l24.717,10.2
		c1.574,0.649,2.428,2.201,1.908,3.464l0,0c-0.521,1.263-2.223,1.76-3.797,1.11L141.932,33.18z"/>
	<path fill="#F4CB0B" d="M87.272,42c-1.616,0.543-3.324-0.202-3.818-1.666l0,0c-0.495-1.465,0.414-3.093,2.029-3.638l25.336-8.542
		c1.614-0.543,3.323,0.201,3.818,1.666l0,0c0.493,1.464-0.415,3.093-2.03,3.637L87.272,42z"/>
	<path fill="#F4CB0B" d="M54.316,66.732c-1.331,1.066-3.16,0.989-4.088-0.169l0,0c-0.929-1.159-0.604-2.961,0.727-4.027
		l20.87-16.714c1.33-1.065,3.16-0.989,4.089,0.17l0,0c0.928,1.158,0.603,2.962-0.728,4.027L54.316,66.732z"/>
	<path fill="#F4CB0B" d="M34.586,111.856c-0.216,1.498-1.629,2.533-3.159,2.314l0,0c-1.53-0.219-2.596-1.61-2.381-3.108
		l3.372-23.498c0.216-1.496,1.629-2.532,3.16-2.313l0,0c1.529,0.219,2.595,1.612,2.38,3.109L34.586,111.856z"/>
</g>
</svg>
